<!-- save as nifty-neuron.svg -->
<svg xmlns="http://www.w3.org/2000/svg" viewBox="0 0 100 100">
  <!-- main neuron body -->
  <circle cx="50" cy="50" r="14" fill="#764ba2"></circle>

  <!-- thicker curved connections -->
  <path d="M50 38 C50 25, 65 20, 70 15" fill="none" stroke="#764ba2" stroke-width="6" stroke-linecap="round"></path>
  <path d="M50 38 C50 25, 35 20, 30 15" fill="none" stroke="#764ba2" stroke-width="6" stroke-linecap="round"></path>
  <path d="M50 62 C50 75, 65 80, 70 85" fill="none" stroke="#764ba2" stroke-width="6" stroke-linecap="round"></path>
  <path d="M50 62 C50 75, 35 80, 30 85" fill="none" stroke="#764ba2" stroke-width="6" stroke-linecap="round"></path>
  <path d="M38 50 C25 50, 20 35, 15 30" fill="none" stroke="#764ba2" stroke-width="6" stroke-linecap="round"></path>
  <path d="M62 50 C75 50, 80 35, 85 30" fill="none" stroke="#764ba2" stroke-width="6" stroke-linecap="round"></path>

  <!-- larger outer node circles -->
  <circle cx="70" cy="15" r="6" fill="#764ba2"></circle>
  <circle cx="30" cy="15" r="6" fill="#764ba2"></circle>
  <circle cx="70" cy="85" r="6" fill="#764ba2"></circle>
  <circle cx="30" cy="85" r="6" fill="#764ba2"></circle>
  <circle cx="15" cy="30" r="6" fill="#764ba2"></circle>
  <circle cx="85" cy="30" r="6" fill="#764ba2"></circle>
</svg>
